<svg width="200" height="60" viewBox="0 0 200 60" xmlns="http://www.w3.org/2000/svg">
  <defs>
    <linearGradient id="arrowGradient" x1="0%" y1="0%" x2="100%" y2="0%">
      <stop offset="0%" style="stop-color:#ff0000;stop-opacity:1" />
      <stop offset="100%" style="stop-color:#8b0000;stop-opacity:1" />
    </linearGradient>
    <filter id="pixelate">
      <feGaussianBlur stdDeviation="0.5"/>
      <feColorMatrix type="matrix" values="1 0 0 0 0 0 1 0 0 0 0 0 1 0 0 0 0 0 1 0"/>
    </filter>
  </defs>
  
  <!-- Background arrow with pixelated effect -->
  <g filter="url(#pixelate)">
    <!-- Main arrow body -->
    <path d="M10 30 L35 15 L35 45 Z" fill="url(#arrowGradient)" stroke="#000" stroke-width="1"/>
    
    <!-- Pixelated edge effects -->
    <rect x="8" y="28" width="2" height="2" fill="#ff0000"/>
    <rect x="9" y="27" width="2" height="2" fill="#ff0000"/>
    <rect x="9" y="29" width="2" height="2" fill="#ff0000"/>
    <rect x="10" y="26" width="2" height="2" fill="#ff0000"/>
    <rect x="10" y="30" width="2" height="2" fill="#ff0000"/>
    <rect x="11" y="25" width="2" height="2" fill="#ff0000"/>
    <rect x="11" y="31" width="2" height="2" fill="#ff0000"/>
    
    <!-- Right side pixelation -->
    <rect x="33" y="14" width="2" height="2" fill="#8b0000"/>
    <rect x="34" y="13" width="2" height="2" fill="#8b0000"/>
    <rect x="35" y="12" width="2" height="2" fill="#8b0000"/>
    <rect x="36" y="13" width="2" height="2" fill="#8b0000"/>
    <rect x="37" y="14" width="2" height="2" fill="#8b0000"/>
    
    <rect x="33" y="44" width="2" height="2" fill="#8b0000"/>
    <rect x="34" y="45" width="2" height="2" fill="#8b0000"/>
    <rect x="35" y="46" width="2" height="2" fill="#8b0000"/>
    <rect x="36" y="45" width="2" height="2" fill="#8b0000"/>
    <rect x="37" y="44" width="2" height="2" fill="#8b0000"/>
  </g>
  
  <!-- ISD Text -->
  <text x="50" y="25" font-family="Arial, sans-serif" font-size="24" font-weight="bold" fill="#ff0000">ISD</text>
  
  <!-- Three red dots -->
  <circle cx="75" cy="18" r="2" fill="#ff0000"/>
  <circle cx="75" cy="22" r="1.5" fill="#ff0000"/>
  <circle cx="75" cy="25" r="1" fill="#ff0000"/>
  
  <!-- Company full name -->
  <text x="50" y="45" font-family="Arial, sans-serif" font-size="10" fill="#ffffff">Integrated Synchronized Digitized</text>
</svg> 